<svg width="850" height="583" viewBox="0 0 850 583" fill="none" xmlns="http://www.w3.org/2000/svg">
<g id="box">
<path id="Vector" opacity="0.1" d="M425 582.67C659.721 582.67 850 567.895 850 549.67C850 531.445 659.721 516.67 425 516.67C190.279 516.67 0 531.445 0 549.67C0 567.895 190.279 582.67 425 582.67Z" fill="#6C63FF"/>
<path id="Vector_2" d="M511.81 550.66L333.62 548.38L334.14 543.81L342.76 468.42H499.24L510.76 543.81L511.64 549.52L511.81 550.66Z" fill="#D0D2D5"/>
<path id="Vector_3" opacity="0.1" d="M511.64 549.52H422.71L333.62 548.38L334.14 543.81H510.76L511.64 549.52Z" fill="black"/>
<path id="Vector_4" d="M540.37 544.95H303.92V550.66H540.37V544.95Z" fill="#D0D2D5"/>
<path id="Vector_5" d="M765.96 15.62C765.977 13.6622 765.607 11.7203 764.872 9.90572C764.137 8.09114 763.051 6.43964 761.676 5.04596C760.3 3.65228 758.664 2.54387 756.859 1.78435C755.055 1.02482 753.118 0.629137 751.16 0.619995H90.84C88.8825 0.630455 86.9463 1.02703 85.1424 1.78702C83.3385 2.54701 81.7022 3.65546 80.3274 5.04887C78.9525 6.44229 77.8661 8.09329 77.1304 9.90727C76.3947 11.7213 76.0242 13.6626 76.04 15.62V415.88H765.96V15.62Z" fill="#3F3D56"/>
<path id="Vector_6" d="M76.04 411.88V458.77C76.04 462.695 77.5993 466.46 80.3748 469.235C83.1503 472.011 86.9148 473.57 90.84 473.57H751.16C755.085 473.57 758.85 472.011 761.625 469.235C764.401 466.46 765.96 462.695 765.96 458.77V411.88H76.04Z" fill="#D0D2D5"/>
<path id="Vector_7" d="M740.83 25.8H104.6V385.61H740.83V25.8Z" fill="#2F2E41"/>
<path id="Vector_8" opacity="0.1" d="M439.85 473.56L510.94 544.95L500.03 473.56H439.85Z" fill="black"/>
<g id="gear-svgrepo-com 1" clip-path="url(#clip0)">
<g id="wheel1">
<path id="Vector_9" d="M386.17 172.108C370.146 172.108 357.109 185.144 357.109 201.168C357.109 217.191 370.146 230.227 386.17 230.227C402.194 230.227 415.231 217.191 415.231 201.168C415.231 185.144 402.194 172.108 386.17 172.108ZM386.17 223.769C373.707 223.769 363.567 213.631 363.567 201.168C363.567 188.705 373.707 178.566 386.17 178.566C398.633 178.566 408.773 188.705 408.773 201.168C408.773 213.631 398.633 223.769 386.17 223.769Z" fill="#63BCFF"/>
<path id="Vector_10" d="M429.855 228.109L426.172 224.426C428.274 220.828 429.864 217.004 430.919 213.007H436.111C437.895 213.007 439.34 211.561 439.34 209.778V192.558C439.34 190.774 437.895 189.329 436.111 189.329H430.919C429.864 185.332 428.274 181.508 426.172 177.91L429.855 174.227C431.117 172.966 431.117 170.922 429.855 169.661L417.678 157.485C416.417 156.224 414.373 156.224 413.112 157.485L409.429 161.167C405.832 159.066 402.007 157.476 398.01 156.421V151.229C398.01 149.446 396.565 148 394.781 148H377.56C375.776 148 374.331 149.446 374.331 151.229V156.421C370.334 157.476 366.509 159.066 362.911 161.167L359.229 157.485C358.623 156.879 357.802 156.539 356.945 156.539C356.088 156.539 355.268 156.879 354.661 157.485L342.484 169.661C341.223 170.922 341.223 172.966 342.484 174.227L346.168 177.91C344.066 181.507 342.476 185.331 341.421 189.328H336.229C334.445 189.328 333 190.774 333 192.557V209.778C333 211.561 334.445 213.006 336.229 213.006H341.421C342.476 217.004 344.066 220.828 346.168 224.425L342.484 228.108C341.223 229.369 341.223 231.414 342.484 232.674L354.661 244.851C355.267 245.456 356.088 245.796 356.945 245.796C357.801 245.796 358.622 245.456 359.228 244.851L362.911 241.168C366.509 243.269 370.333 244.859 374.331 245.914V251.106C374.331 252.89 375.776 254.335 377.559 254.335H394.781C396.564 254.335 398.009 252.89 398.009 251.106V245.914C402.007 244.859 405.831 243.269 409.429 241.168L413.111 244.851C414.373 246.112 416.417 246.112 417.678 244.851L429.855 232.674C431.116 231.414 431.116 229.37 429.855 228.109ZM425.193 209.136C424.182 214.118 422.228 218.821 419.385 223.114C418.537 224.394 418.708 226.094 419.794 227.18L423.006 230.391L415.395 238.002L412.183 234.79C411.097 233.704 409.397 233.534 408.117 234.381C403.824 237.224 399.121 239.178 394.138 240.19C392.633 240.495 391.552 241.818 391.552 243.354V247.878H380.788V243.354C380.788 241.818 379.707 240.495 378.202 240.19C373.219 239.178 368.515 237.224 364.222 234.381C362.942 233.534 361.242 233.704 360.156 234.79L356.945 238.002L349.334 230.392L352.546 227.18C353.632 226.095 353.803 224.394 352.955 223.114C350.112 218.822 348.158 214.118 347.146 209.136C346.841 207.631 345.517 206.55 343.981 206.55H339.458V195.787H343.982C345.517 195.787 346.841 194.705 347.146 193.201C348.158 188.218 350.113 183.515 352.955 179.222C353.803 177.942 353.632 176.242 352.547 175.156L349.335 171.945L356.945 164.335L360.157 167.546C361.243 168.632 362.943 168.803 364.223 167.955C368.516 165.113 373.219 163.158 378.202 162.147C379.707 161.842 380.789 160.518 380.789 158.983V154.458H391.552V158.981C391.552 160.517 392.633 161.84 394.139 162.146C399.122 163.157 403.825 165.111 408.118 167.954C409.398 168.801 411.098 168.631 412.184 167.545L415.395 164.333L423.006 171.944L419.794 175.156C418.709 176.241 418.537 177.941 419.386 179.221C422.229 183.514 424.183 188.217 425.194 193.2C425.499 194.705 426.822 195.786 428.359 195.786H432.882V206.549H428.358C426.822 206.549 425.499 207.631 425.193 209.136Z" fill="#63BCFF"/>
<path id="Vector_11" d="M386.17 185.885C377.742 185.885 370.886 192.741 370.886 201.168C370.886 209.595 377.742 216.451 386.17 216.451C394.598 216.451 401.454 209.595 401.454 201.168C401.454 192.741 394.598 185.885 386.17 185.885ZM386.17 209.993C381.303 209.993 377.344 206.034 377.344 201.168C377.344 196.301 381.303 192.342 386.17 192.342C391.037 192.342 394.996 196.301 394.996 201.168C394.996 206.034 391.037 209.993 386.17 209.993Z" fill="#63BCFF"/>
</g>
<g id="wheel2">
<path id="Vector_12" d="M485.331 243.553H481.447C480.88 239.375 479.233 235.539 476.792 232.334L479.544 229.582C480.805 228.321 480.805 226.276 479.544 225.016C478.283 223.754 476.239 223.755 474.978 225.016L472.226 227.768C469.022 225.327 465.185 223.679 461.008 223.112V219.229C461.008 217.446 459.563 216 457.78 216C455.996 216 454.551 217.446 454.551 219.229V223.112C450.374 223.679 446.537 225.327 443.333 227.768L440.581 225.016C439.32 223.755 437.276 223.754 436.016 225.016C434.754 226.277 434.754 228.321 436.015 229.582L438.767 232.334C436.326 235.539 434.679 239.375 434.112 243.553H430.229C428.445 243.553 427 244.998 427 246.781C427 248.565 428.445 250.01 430.229 250.01H434.112C434.679 254.187 436.326 258.024 438.767 261.229L436.015 263.981C434.754 265.242 434.754 267.286 436.016 268.547C436.646 269.178 437.472 269.493 438.298 269.493C439.125 269.493 439.951 269.178 440.582 268.547L443.333 265.795C446.538 268.236 450.375 269.883 454.551 270.45V274.334C454.551 276.117 455.997 277.563 457.78 277.563C459.563 277.563 461.009 276.117 461.009 274.334V270.45C465.186 269.883 469.022 268.236 472.227 265.795L474.978 268.547C475.609 269.178 476.435 269.493 477.262 269.493C478.088 269.493 478.914 269.178 479.544 268.547C480.806 267.286 480.806 265.242 479.545 263.981L476.793 261.229C479.234 258.024 480.881 254.187 481.448 250.01H485.331C487.115 250.01 488.56 248.565 488.56 246.781C488.56 244.998 487.114 243.553 485.331 243.553ZM457.78 264.217C448.166 264.217 440.345 256.395 440.345 246.781C440.345 237.167 448.166 229.346 457.78 229.346C467.393 229.346 475.214 237.167 475.214 246.781C475.214 256.395 467.393 264.217 457.78 264.217Z" fill="#63BCFF"/>
<path id="Vector_13" d="M457.78 236.664C452.201 236.664 447.663 241.203 447.663 246.781C447.663 252.36 452.201 256.898 457.78 256.898C463.358 256.898 467.896 252.36 467.896 246.781C467.896 241.203 463.358 236.664 457.78 236.664ZM457.78 250.441C455.762 250.441 454.12 248.799 454.12 246.781C454.12 244.764 455.762 243.122 457.78 243.122C459.797 243.122 461.439 244.764 461.439 246.781C461.439 248.799 459.797 250.441 457.78 250.441Z" fill="#63BCFF"/>
</g>
<g id="wheel3">
<path id="Vector_14" d="M514.595 183.589C505.218 183.589 497.588 191.217 497.588 200.594C497.588 209.97 505.218 217.599 514.595 217.599C523.972 217.599 531.601 209.97 531.601 200.594C531.601 191.217 523.972 183.589 514.595 183.589ZM514.595 211.141C508.778 211.141 504.046 206.409 504.046 200.594C504.046 194.778 508.778 190.046 514.595 190.046C520.411 190.046 525.143 194.778 525.143 200.594C525.143 206.409 520.411 211.141 514.595 211.141Z" fill="#63BCFF"/>
<path id="Vector_15" d="M544.699 194.029L544.666 194.028C543.874 190.401 542.441 187.013 540.492 183.985L540.524 183.95C543.031 181.386 543.014 177.261 540.472 174.718C539.231 173.479 537.583 172.795 535.829 172.795C535.829 172.795 535.829 172.795 535.829 172.795C534.1 172.795 532.473 173.459 531.239 174.666L531.205 174.698C528.176 172.749 524.789 171.316 521.162 170.524L521.16 170.491C521.12 166.906 518.191 164 514.595 164C511 164 508.07 166.905 508.03 170.491L508.028 170.524C504.401 171.316 501.013 172.749 497.985 174.698L497.951 174.666C495.386 172.159 491.261 172.176 488.718 174.718C486.176 177.261 486.159 181.386 488.666 183.95L488.698 183.985C486.749 187.013 485.316 190.401 484.524 194.028L484.491 194.029C480.905 194.069 478 196.999 478 200.594C478 204.19 480.905 207.119 484.492 207.159L484.524 207.16C485.316 210.787 486.749 214.174 488.698 217.203L488.666 217.238C486.159 219.802 486.176 223.927 488.718 226.469C489.958 227.709 491.607 228.392 493.361 228.392C493.361 228.392 493.361 228.392 493.361 228.392C495.09 228.392 496.717 227.728 497.951 226.521L497.985 226.489C501.013 228.438 504.401 229.871 508.028 230.663L508.03 230.697C508.07 234.282 511 237.187 514.595 237.187C514.595 237.187 514.595 237.187 514.595 237.187C516.349 237.187 517.998 236.505 519.237 235.265C520.46 234.042 521.141 232.422 521.16 230.697L521.162 230.663C524.789 229.872 528.176 228.439 531.205 226.49L531.24 226.522C533.804 229.029 537.93 229.011 540.472 226.469C543.014 223.927 543.031 219.802 540.524 217.238L540.492 217.203C542.441 214.175 543.874 210.788 544.666 207.161L544.698 207.159C548.285 207.119 551.19 204.19 551.19 200.595C551.19 196.998 548.285 194.069 544.699 194.029ZM514.595 224.917C501.16 224.917 490.269 214.027 490.269 200.594C490.269 187.16 501.16 176.27 514.595 176.27C528.029 176.27 538.92 187.16 538.92 200.594C538.92 214.027 528.029 224.917 514.595 224.917Z" fill="#63BCFF"/>
</g>
</g>
</g>
<defs>
<clipPath id="clip0">
<rect width="250" height="127" fill="white" transform="translate(333 148)"/>
</clipPath>
</defs>
</svg>
