<svg width="250" height="127" viewBox="0 0 250 127" fill="none" xmlns="http://www.w3.org/2000/svg">
<g id="gear-svgrepo-com 1">
<g id="wheel1">
<path id="Vector" d="M66.974 24.1085C46.7896 24.1085 30.3688 37.1443 30.3688 53.1678C30.3688 69.1913 46.7896 82.2271 66.974 82.2271C87.1584 82.2271 103.579 69.1913 103.579 53.1678C103.579 37.1443 87.1584 24.1085 66.974 24.1085ZM66.974 75.7695C51.2755 75.7695 38.5033 65.6306 38.5033 53.1678C38.5033 40.705 51.2755 30.5661 66.974 30.5661C82.6725 30.5661 95.4447 40.705 95.4447 53.1678C95.4447 65.6306 82.6725 75.7695 66.974 75.7695Z" fill="#63BCFF"/>
<path id="Vector_2" d="M122.001 80.1086L117.362 76.4256C120.009 72.8278 122.011 69.0036 123.341 65.0068H129.881C132.127 65.0068 133.948 63.5611 133.948 61.778V44.5576C133.948 42.7745 132.127 41.3288 129.881 41.3288H123.341C122.011 37.3315 120.009 33.5078 117.362 29.91L122.001 26.227C123.589 24.9661 123.589 22.9216 122.001 21.661L106.663 9.48453C105.074 8.22357 102.499 8.22357 100.911 9.48453L96.2717 13.1671C91.7402 11.0658 86.923 9.47635 81.8877 8.42075V3.22881C81.8877 1.44565 80.0672 0 77.8205 0H56.1285C53.8818 0 52.0613 1.44565 52.0613 3.22881V8.42075C47.026 9.47635 42.2088 11.0658 37.6768 13.1671L33.038 9.48453C32.2749 8.87881 31.2408 8.53871 30.1616 8.53871C29.0824 8.53871 28.0488 8.87881 27.2852 9.48453L11.9469 21.6606C10.3585 22.9216 10.3585 24.966 11.9469 26.2266L16.5862 29.9096C13.9387 33.5069 11.9366 37.3311 10.6074 41.3284H4.06724C1.8205 41.3284 0 42.774 0 44.5572V61.7775C0 63.5607 1.8205 65.0063 4.06724 65.0063H10.6074C11.9366 69.0036 13.9393 72.8278 16.5862 76.4252L11.9469 80.1082C10.3585 81.3691 10.3585 83.4136 11.9469 84.6741L27.2847 96.8506C28.0477 97.4564 29.0819 97.7965 30.1611 97.7965C31.2402 97.7965 32.2739 97.4564 33.0374 96.8506L37.6762 93.1681C42.2082 95.2694 47.0255 96.8588 52.0607 97.9144V103.106C52.0607 104.89 53.8812 106.335 56.128 106.335H77.82C80.0667 106.335 81.8872 104.89 81.8872 103.106V97.9144C86.9224 96.8588 91.7397 95.2694 96.2711 93.1681L100.91 96.8506C102.499 98.1116 105.074 98.1116 106.662 96.8506L122.001 84.6741C123.589 83.414 123.589 81.3696 122.001 80.1086ZM116.129 61.1356C114.855 66.1179 112.393 70.8208 108.812 75.1138C107.744 76.3942 107.96 78.0942 109.327 79.1795L113.373 82.3912L103.786 90.0017L99.7408 86.7901C98.372 85.7043 96.231 85.5339 94.6193 86.3811C89.2115 89.2237 83.2874 91.1783 77.0108 92.1895C75.115 92.4952 73.7527 93.8181 73.7527 95.3538V99.8775H60.1952V95.3538C60.1952 93.8181 58.8324 92.4947 56.9371 92.1895C50.6605 91.1778 44.7359 89.2237 39.3281 86.3811C37.7158 85.5339 35.5743 85.7043 34.2066 86.7901L30.1611 90.0017L20.5748 82.3916L24.6209 79.18C25.9881 78.0947 26.2039 76.3942 25.1356 75.1143C21.5548 70.8217 19.0927 66.1184 17.8183 61.1356C17.4338 59.631 15.7668 58.5496 13.8324 58.5496H8.13449V47.7869H13.833C15.7668 47.7869 17.4344 46.7054 17.8189 45.2008C19.0938 40.2181 21.5559 35.5148 25.1361 31.2222C26.2044 29.9419 25.9886 28.2418 24.6215 27.1565L20.5754 23.9449L30.1616 16.3348L34.2072 19.5464C35.5748 20.6321 37.7169 20.8026 39.3286 19.9554C44.7364 17.1127 50.6605 15.1582 56.9376 14.1469C58.833 13.8417 60.1958 12.5183 60.1958 10.9827V6.45763H73.7533V10.9814C73.7533 12.517 75.1155 13.84 77.0114 14.1456C83.288 15.1573 89.212 17.1114 94.6198 19.9541C96.2321 20.8013 98.3736 20.6308 99.7413 19.5451L103.787 16.3335L113.374 23.944L109.328 27.1556C107.96 28.2409 107.745 29.9414 108.813 31.2213C112.394 35.5144 114.856 40.2172 116.129 45.1995C116.514 46.7046 118.181 47.786 120.116 47.786H125.813V58.5487H120.114C118.18 58.5492 116.514 59.6306 116.129 61.1356Z" fill="#63BCFF"/>
<path id="Vector_3" d="M66.974 37.8847C56.3585 37.8847 47.7223 44.7406 47.7223 53.1678C47.7223 61.595 56.3585 68.4508 66.974 68.4508C77.5895 68.4508 86.2256 61.595 86.2256 53.1678C86.2256 44.7406 77.5895 37.8847 66.974 37.8847ZM66.974 61.9932C60.8438 61.9932 55.8568 58.0343 55.8568 53.1678C55.8568 48.3013 60.8438 44.3424 66.974 44.3424C73.1041 44.3424 78.0911 48.3013 78.0911 53.1678C78.0911 58.0343 73.1041 61.9932 66.974 61.9932Z" fill="#63BCFF"/>
</g>
<g id="wheel2">
<path id="Vector_4" d="M189.534 92.9898H184.642C183.927 88.8126 181.852 84.9759 178.778 81.7712L182.244 79.019C183.832 77.758 183.832 75.7135 182.243 74.453C180.656 73.1916 178.08 73.192 176.492 74.453L173.025 77.2048C168.989 74.7638 164.155 73.1167 158.894 72.5497V68.6661C158.894 66.8829 157.073 65.4373 154.826 65.4373C152.58 65.4373 150.759 66.8829 150.759 68.6661V72.5497C145.497 73.1167 140.664 74.7638 136.627 77.2048L133.161 74.453C131.573 73.192 128.997 73.1916 127.409 74.453C125.82 75.714 125.821 77.758 127.409 79.019L130.875 81.7712C127.8 84.9759 125.726 88.8126 125.011 92.9898H120.119C117.873 92.9898 116.052 94.4355 116.052 96.2187C116.052 98.0018 117.873 99.4475 120.119 99.4475H125.011C125.726 103.625 127.8 107.461 130.875 110.666L127.409 113.418C125.821 114.679 125.82 116.724 127.409 117.984C128.203 118.615 129.245 118.93 130.285 118.93C131.326 118.93 132.367 118.615 133.162 117.984L136.628 115.232C140.665 117.673 145.498 119.321 150.76 119.888V123.771C150.76 125.554 152.58 127 154.827 127C157.074 127 158.894 125.554 158.894 123.771V119.888C164.156 119.321 168.989 117.673 173.026 115.232L176.492 117.984C177.287 118.615 178.328 118.93 179.369 118.93C180.409 118.93 181.451 118.615 182.245 117.984C183.834 116.723 183.834 114.679 182.245 113.418L178.779 110.666C181.854 107.461 183.928 103.625 184.643 99.4475H189.535C191.781 99.4475 193.602 98.0018 193.602 96.2187C193.602 94.4355 191.78 92.9898 189.534 92.9898ZM154.826 113.654C142.716 113.654 132.863 105.833 132.863 96.2187C132.863 86.6045 142.716 78.7831 154.826 78.7831C166.937 78.7831 176.79 86.6045 176.79 96.2187C176.79 105.833 166.937 113.654 154.826 113.654Z" fill="#63BCFF"/>
<path id="Vector_5" d="M154.826 86.1017C147.799 86.1017 142.082 90.6401 142.082 96.2187C142.082 101.797 147.799 106.336 154.826 106.336C161.854 106.336 167.57 101.797 167.57 96.2187C167.57 90.6401 161.854 86.1017 154.826 86.1017ZM154.826 99.878C152.285 99.878 150.217 98.2364 150.217 96.2187C150.217 94.2009 152.285 92.5593 154.826 92.5593C157.368 92.5593 159.436 94.2009 159.436 96.2187C159.436 98.2364 157.368 99.878 154.826 99.878Z" fill="#63BCFF"/>
</g>
<g id="wheel3">
<path id="Vector_6" d="M203.903 24.3242C192.092 24.3242 182.483 31.9528 182.483 41.3293C182.483 50.7057 192.092 58.3343 203.903 58.3343C215.715 58.3343 225.324 50.7057 225.324 41.3293C225.324 31.9528 215.715 24.3242 203.903 24.3242ZM203.903 51.8767C196.577 51.8767 190.617 47.145 190.617 41.3293C190.617 35.5135 196.577 30.7818 203.903 30.7818C211.23 30.7818 217.19 35.5135 217.19 41.3293C217.19 47.145 211.23 51.8767 203.903 51.8767Z" fill="#63BCFF"/>
<path id="Vector_7" d="M241.823 34.7644L241.781 34.7631C240.784 31.1361 238.978 27.7484 236.523 24.7202L236.564 24.6854C239.722 22.1217 239.7 17.9961 236.498 15.454C234.936 14.2141 232.86 13.5309 230.651 13.5309C230.65 13.5309 230.651 13.5309 230.65 13.5309C228.472 13.5309 226.423 14.1947 224.869 15.4019L224.825 15.4337C221.011 13.4848 216.744 12.0512 212.175 11.26L212.174 11.2264C212.123 7.6411 208.433 4.73603 203.904 4.7356C199.375 4.7356 195.685 7.64067 195.634 11.2264L195.633 11.26C191.064 12.0517 186.797 13.4848 182.983 15.4337L182.939 15.4014C179.708 12.8942 174.513 12.9118 171.31 15.454C168.108 17.9961 168.086 22.1213 171.243 24.6854L171.285 24.7207C168.83 27.7489 167.024 31.1365 166.027 34.7636L165.985 34.7649C161.468 34.8049 157.809 37.7345 157.809 41.3297C157.809 44.9253 161.469 47.8545 165.986 47.8945L166.027 47.8958C167.024 51.5228 168.83 54.9101 171.285 57.9383L171.243 57.9736C168.086 60.5377 168.108 64.6628 171.31 67.2045C172.871 68.4448 174.948 69.1276 177.157 69.1276C177.158 69.1276 177.157 69.1276 177.158 69.1276C179.336 69.1276 181.384 68.4638 182.939 67.2571L182.983 67.2248C186.797 69.1737 191.064 70.6068 195.633 71.3985L195.634 71.4321C195.685 75.0178 199.375 77.9229 203.903 77.9229C203.904 77.9229 203.904 77.9229 203.905 77.9229C206.113 77.9229 208.19 77.2401 209.752 76.0003C211.292 74.7776 212.15 73.158 212.174 71.4326L212.175 71.399C216.744 70.6077 221.011 69.1741 224.825 67.2252L224.87 67.2575C228.1 69.7648 233.296 69.7467 236.498 67.205C239.701 64.6628 239.722 60.5373 236.564 57.9736L236.523 57.9387C238.978 54.9105 240.784 51.5233 241.781 47.8962L241.822 47.8949C246.339 47.8549 249.999 44.9257 249.999 41.3301C249.999 37.7341 246.34 34.8049 241.823 34.7644ZM203.903 65.653C186.982 65.653 173.264 54.7628 173.264 41.3293C173.264 27.8957 186.982 17.0055 203.903 17.0055C220.825 17.0055 234.543 27.8957 234.543 41.3293C234.543 54.7628 220.825 65.653 203.903 65.653Z" fill="#63BCFF"/>
</g>
</g>
</svg>
